<svg xmlns="http://www.w3.org/2000/svg" xmlns:xlink="http://www.w3.org/1999/xlink" viewBox="0 0 64.899 46.225">
  <g fill="#c40000" fill-rule="evenodd" stroke="#920000" stroke-width="3.833">
    <use xlink:href="#reuse-0" transform="matrix(.1823 .00289 -.00322 .16332 -96.524 55.938)"/>
    <use xlink:href="#reuse-1" transform="matrix(.1823 .00289 -.00322 .16332 -96.524 55.938)"/>
    <use xlink:href="#reuse-2" transform="matrix(.1823 .00289 -.00322 .16332 -96.524 55.938)"/>
    <use xlink:href="#reuse-3" transform="matrix(.1823 .00289 -.00322 .16332 -96.524 55.938)"/>
    <use xlink:href="#reuse-0" transform="matrix(-.18215 .0071 .00793 .16319 161.737 52.664)"/>
    <use xlink:href="#reuse-1" transform="matrix(-.18215 .0071 .00793 .16319 161.737 52.664)"/>
    <use xlink:href="#reuse-2" transform="matrix(-.18215 .0071 .00793 .16319 161.737 52.664)"/>
    <use xlink:href="#reuse-3" transform="matrix(-.18215 .0071 .00793 .16319 161.737 52.664)"/>
    <g stroke-width="3.764">
      <use xlink:href="#reuse-0" transform="matrix(.17988 -.02022 .0215 .16924 -89.321 71.324)"/>
      <use xlink:href="#reuse-1" transform="matrix(.17988 -.02022 .0215 .16924 -89.321 71.324)"/>
      <use xlink:href="#reuse-2" transform="matrix(.17988 -.02022 .0215 .16924 -89.321 71.324)"/>
      <use xlink:href="#reuse-3" transform="matrix(.17988 -.02022 .0215 .16924 -89.321 71.324)"/>
      <path d="M737.973-130.164c12.24 2.35 25.76-1.068 45.456 1.684 3.64 5.654 2.876 9.107.562 11.785-22.924 2.119-56.43-5.048-53.949-2.102 1.446 1.717 6.808-9.683 7.93-11.367z" transform="matrix(-.17812 -.03027 -.03328 .1677 151.618 79.212)"/>
      <use xlink:href="#reuse-1" transform="matrix(-.17812 -.03027 -.03328 .1677 151.618 79.212)"/>
      <use xlink:href="#reuse-2" transform="matrix(-.17812 -.03027 -.03328 .1677 151.618 79.212)"/>
      <use xlink:href="#reuse-3" transform="matrix(-.17812 -.03027 -.03328 .1677 151.618 79.212)"/>
    </g>
    <use xlink:href="#reuse-4" transform="matrix(.18232 0 0 .16334 -95.226 58.088)"/>
    <use xlink:href="#reuse-5" transform="matrix(.18232 0 0 .16334 -95.226 58.088)"/>
    <use xlink:href="#reuse-6" transform="matrix(.18232 0 0 .16334 -95.226 58.088)"/>
    <use xlink:href="#reuse-7" transform="matrix(.18232 0 0 .16334 -95.226 58.088)"/>
    <use xlink:href="#reuse-4" transform="matrix(-.17649 .04102 .04578 .15811 165.873 22.42)"/>
    <use xlink:href="#reuse-5" transform="matrix(-.17649 .04102 .04578 .15811 165.873 22.42)"/>
    <use xlink:href="#reuse-6" transform="matrix(-.17649 .04102 .04578 .15811 165.873 22.42)"/>
    <use xlink:href="#reuse-7" transform="matrix(-.17649 .04102 .04578 .15811 165.873 22.42)"/>
    <use xlink:href="#reuse-8" transform="matrix(.18232 0 0 .16334 -94.867 56.69)"/>
    <use xlink:href="#reuse-9" transform="matrix(.18232 0 0 .16334 -94.867 56.69)"/>
    <use xlink:href="#reuse-10" transform="matrix(.18232 0 0 .16334 -94.867 56.69)"/>
    <use xlink:href="#reuse-8" transform="matrix(-.17782 .03608 .04027 .1593 166.718 34.767)"/>
    <use xlink:href="#reuse-9" transform="matrix(-.17782 .03608 .04027 .1593 166.718 34.767)"/>
    <use xlink:href="#reuse-10" transform="matrix(-.17782 .03608 .04027 .1593 166.718 34.767)"/>
    <use xlink:href="#reuse-11" transform="matrix(.16189 -.07514 .08388 .14503 -53.568 112.036)"/>
    <path d="M734.044-366.427c3.476 18.308 12.974 14.553 17.273 19.661 3.642 4.328 5.969 12.99 6.297 28.602l-10.662-6.174c-5.1-14.997-27.741-35.95-12.908-42.09z" transform="matrix(.16189 -.07514 .08388 .14503 -53.568 112.036)"/>
    <path d="M789.227-261.79c4.68-9.634 3.102 2.078 10.712-4.817l7.837-.371c-8.42-42.736-18.622-33.218-21.317-50.131-1.488 9.656-23.7 12.338-34.165 10.407l-9.396-5.517-11.355 2.215c22.92 30.64 23.112 45.772 57.684 48.215z" transform="matrix(.18232 0 0 .16334 -94.85 58.244)"/>
    <use xlink:href="#reuse-12" transform="matrix(.18232 0 0 .16334 -94.85 58.244)"/>
    <g stroke-width="4.415">
      <use xlink:href="#reuse-11" transform="matrix(-.13139 -.06052 -.0805 .13374 95.23 98.949)"/>
      <path d="M740.661-369.602c3.476 18.308 12.975 14.554 17.273 19.661 3.642 4.328-.648 16.164-.32 31.777l-10.662-6.174c1.332-21.683-21.124-39.125-6.29-45.264z" transform="matrix(-.13139 -.06052 -.0805 .13374 95.23 98.949)"/>
      <path d="M789.227-261.79c4.68-9.634 3.102 2.078 10.712-4.817l7.837-.371c-8.42-42.736-18.622-33.218-21.317-50.131-1.488 9.656-23.7 12.338-34.165 10.407l-9.396-5.517-9.306 1.48c12.762 33.056 21.063 46.507 55.635 48.95z" transform="matrix(-.15369 .0078 -.01103 .14659 133.658 48.91)"/>
      <use xlink:href="#reuse-12" transform="matrix(-.15369 .0078 -.01103 .14659 133.658 48.91)"/>
    </g>
    <path d="M701.016-112.728c7.515 3.091 17.801-1.634 29.801-4.683 0 0 6.126 1.336 7.857-4.61 3.614-12.422 20.219-21.301 30.863-23.624 10.264.44 15.986-3.556 21.886-4.61 8.124-5.377 6.016-10.755 7.295-16.133v-9.219c3.314-5.378 3.793-10.756 1.122-16.134 2.102-8.554 2.35-14.87 1.122-24.776-2.358-6.338-2.11-9.795-11.223-14.981 0 0-11.205-5.047-13.468-11.524-2.476-7.088-13.446-10.383-16.834-8.643l-8.418-5.762-11.223 1.152-5.612.577-8.417-5.762c-4.06-1.841-14.338 1.018-24.751 2.304-19.392-3.014-17.324-3.569-24.751-2.304l-9.54 5.185h-4.49l-11.223-1.152-8.417 5.762c-3.388-1.74-11.417 3.567-16.835 8.643-5.068 4.748-13.468 11.524-13.468 11.524-9.113 5.186-8.864 6.338-10.1 15.557-6.84 9.906-2.103 15.646 0 24.2-2.672 5.378-2.192 10.756 1.122 16.134v9.22c1.279 5.377-.829 10.755 7.295 16.133 5.9 1.053 11.621 4.473 21.885 4.033 2.227-2.287 27.81 12.354 30.864 24.2 1.546 6 7.856 4.61 7.856 4.61 12 3.049 22.286 7.774 29.802 4.683z" transform="matrix(.18232 0 0 .16334 -95.226 57.878)"/>
  </g>
  <path fill="#d80000" d="M27.34 37.7c-1.518-2.107-3.918-3.567-6.914-4.59l-4.477-1.003-.334-10.39c12.015-7.185 20.75-4.269 29.714-2.06 5.123 3.688 5.587 7.84 3.16 12.283l-7.86 2.43-2.664 3.467c-3.284.506-5.989 1.076-10.624-.137z"/>
  <path fill="#e9001a" d="M28.059 36.392c-1.317-1.828-3.4-3.096-5.999-3.985l-3.883-.87-.29-9.019c10.423-6.237 18-3.705 25.777-1.787 4.444 3.2 4.847 6.805 2.741 10.661l-6.819 2.11-2.31 3.009c-2.85.44-5.196.934-9.217-.119Z"/>
  <path fill="#d80000" d="M13.61 26.16c-.481-.166-1.384.087-2.104.159l.275 1.528c.517.3 1.205.357 1.871.443.129-.71.097-1.42-.041-2.13z"/>
  <path fill="#e9001a" d="M13.385 26.44c-.372-.121-1.07.064-1.625.116l.212 1.116c.4.22.93.26 1.445.323.1-.518.075-1.037-.032-1.555z"/>
  <path fill="#d80000" d="M14.046 29.569c-.482-.166-1.385.087-2.105.159l.276 1.528c.517.3 1.204.357 1.87.443.13-.71.097-1.42-.041-2.13z"/>
  <path fill="#e9001a" d="M13.82 29.849c-.372-.121-1.069.063-1.625.115l.213 1.117c.399.219.93.26 1.444.323.1-.518.075-1.037-.032-1.555z"/>
  <path fill="#d80000" d="M10.17 26.517c-.567-.9-1.717-2.246-1.559-2.587.969-.755 1.937.812 2.906 1.37-.719.104-1.163.515-1.347 1.217z"/>
  <path fill="#e9001a" d="M10.046 25.956c-.683-.657-1.038-1.324-1.187-1.996.824.232 1.638.494 2.292 1.252-.452.159-.927.295-1.105.744z"/>
  <path fill="#d80000" d="M10.397 30.846c-.829-.52-2.307-1.156-2.327-1.53.439-1.126 1.868-.21 2.866-.181-.52.434-.694 1.006-.54 1.711z"/>
  <path fill="#e9001a" d="M10.06 30.412c-.816-.252-1.38-.668-1.783-1.189.746-.189 1.497-.346 2.334.008-.288.356-.602.702-.55 1.181z"/>
  <path fill="#d80000" d="M51.488 27.096c1.301-.37 2.562-.882 3.98-.839.781 2.405-2.162 2.039-4.004 2.492z"/>
  <path fill="#e9001a" d="M51.642 27.38c1.272-.33 2.62-.754 3.626-.757-.585 1.654-2.097 1.41-3.32 1.76z"/>
  <path fill="#d80000" d="M51.247 31.269c1.511-.227 2.993-.6 4.586-.404.586 2.475-2.685 1.793-4.815 2.045z"/>
  <path fill="#e9001a" d="M51.385 31.567c1.474-.19 3.045-.466 4.178-.36-.861 1.581-2.535 1.175-3.954 1.392z"/>
  <path fill="#d80000" d="m7.614 23.162-.468-1.253.902-.376.484 1.153z"/>
  <path fill="#e9001a" d="m7.38 21.997.58-.255.38.906-.643.23z"/>
  <path fill="#d80000" d="m6.55 28.62-1.071-.658.554-.66 1.032.58z"/>
  <path fill="#e9001a" d="m5.723 27.919.35-.435.81.457-.416.445z"/>
  <path fill="#d80000" d="M4.566 26.741c-.973-.569-1.357-1.75-1.914-2.752.88.81 1.883 1.512 2.534 2.522z"/>
  <path fill="#e9001a" d="m4.53 26.5-1.429-1.88 1.76 1.707z"/>
  <path fill="#d80000" d="M62.082 26.14c.72-.799.787-2.042 1.045-3.155-.585 1.008-1.3 1.944-1.64 3.088z"/>
  <path fill="#e9001a" d="m62.058 25.896.82-2.184-1.148 2.101z"/>
  <path fill="#d80000" d="M58.455 19.877c.26-.998-.133-2.222-.335-3.38-.083 1.158-.29 2.287-.138 3.501z"/>
  <path fill="#e9001a" d="m58.35 19.649-.158-2.371-.12 2.393z"/>
  <path fill="#d80000" d="M7.019 20.689c-.477-.869-.385-2.057-.46-3.152.346 1.046.802 2.044.937 3.18z"/>
  <path fill="#e9001a" d="m7.066 20.461-.395-2.197.664 2.17z"/>
  <path fill="#d80000" d="M56.942 29.752c.735-.376 1.509-1.177 2.205-1.103.815.828-.62 1.754-1.504 2.656z"/>
  <path fill="#e9001a" d="M57.228 29.83c.595-.377 1.065-1.001 1.873-.95-.252.8-.64 1.52-1.347 2.054z"/>
  <path fill="#d80000" d="M55.616 25.034c.52-.643.901-1.689 1.567-1.904 1.081.426.146 1.855-.294 3.038z"/>
  <path fill="#e9001a" d="M55.91 24.989c.39-.586.566-1.348 1.324-1.63.096.834.034 1.65-.395 2.425z"/>
  <path fill="#d80000" d="M57.512 21.993c.018-.041.23-1.217.23-1.217l.945.213-.189 1.53z"/>
  <path fill="#e9001a" d="m57.725 21.863.159-.874.68.112-.207 1.14z"/>
  <path fill="#d80000" d="M60.224 27.632c.028-.02.655-.715.655-.715.566-.09.597.188.524.538l-.76.94z"/>
  <path fill="#e9001a" d="m60.415 27.635.468-.516c.378-.141.41.082.393.359l-.609.673z"/>
  <path fill="#d80000" d="m16.634 34.512 5.53.819 1.67 1.069-6.95-.702z"/>
  <path fill="#e9001a" d="m16.943 34.821 5.212.76.994.56-6.206-.685z"/>
  <path fill="#d80000" d="M13.242 34.679c.717-.426 1.472-.315 2.22-.307l.047 1.086-1.866-.118c-.514-.114-.562-.359-.401-.661z"/>
  <path fill="#e9001a" d="M13.45 34.723c.58-.344 1.192-.254 1.798-.248l.038.876-1.511-.095c-.417-.092-.455-.29-.325-.533z"/>
  <path fill="#d80000" d="m12.084 35.364-1.406 1.417.756.272 1.134-1.04z"/>
  <path fill="#e9001a" d="m11.005 36.692 1.002-1.027.284.25-.86.928z"/>
  <path fill="#d80000" d="m9.952 37.812.936.158-.752 1.93z"/>
  <path fill="#e9001a" d="m10.153 38.029.467.041-.367.944z"/>
  <path fill="#d80000" d="m48.558 34.321-4.794.546-1.721.986 6.207-.36Z"/>
  <path fill="#e9001a" d="m48.235 34.615-4.44.509-1.02.51 5.429-.385Z"/>
  <path fill="#d80000" d="M51.939 34.654c-.696-.46-1.456-.387-2.203-.416l-.1 1.083 1.87-.026c.519-.09.578-.331.433-.641z"/>
  <path fill="#e9001a" d="M51.729 34.687c-.564-.371-1.179-.312-1.784-.335l-.081.873 1.514-.02c.42-.073.469-.268.35-.518z"/>
  <path fill="#d80000" d="m53.061 35.395 1.335 1.484-.769.234-1.081-1.093z"/>
  <path fill="#e9001a" d="m54.074 36.774-.95-1.075-.296.237.813.968z"/>
  <path fill="#d80000" d="m55.07 37.944-.942.112.656 1.964z"/>
  <path fill="#e9001a" d="m54.86 38.15-.47.02.321.96z"/>
  <path fill="#d80000" d="m18.364 37.71 6.319-.3.622.801-6.554.632z"/>
  <path fill="#e9001a" d="m18.578 37.982 6.056-.447.409.582-6.3.477z"/>
  <path fill="#d80000" d="M15.11 38.662c.581-.599 1.339-.69 2.063-.878l.33 1.037-1.833.374c-.526.024-.636-.2-.56-.533z"/>
  <path fill="#e9001a" d="M15.322 38.65c.471-.484 1.085-.558 1.67-.71l.267.836-1.484.303c-.426.02-.515-.16-.453-.43z"/>
  <path fill="#d80000" d="m14.138 39.442-.986 1.735.8.065.824-1.3z"/>
  <path fill="#e9001a" d="m13.444 41.006.699-1.253.34.167-.589 1.12z"/>
  <path fill="#d80000" d="m12.596 42.195.944-.092-.221 2.059z"/>
  <path fill="#e9001a" d="m12.846 42.352.462-.082-.108 1.007z"/>
  <path fill="#d80000" d="m46.524 37.71-6.319-.3-.622.801 6.554.632z"/>
  <path fill="#e9001a" d="m46.31 37.982-6.056-.447-.409.582 6.299.477z"/>
  <path fill="#d80000" d="M49.778 38.662c-.581-.599-1.339-.69-2.063-.878l-.33 1.037 1.833.374c.526.024.636-.2.56-.533z"/>
  <path fill="#e9001a" d="M49.566 38.65c-.471-.484-1.085-.558-1.67-.71l-.267.836 1.483.303c.427.02.515-.16.454-.43z"/>
  <path fill="#d80000" d="m50.75 39.442.986 1.735-.801.065-.823-1.3z"/>
  <path fill="#e9001a" d="m51.444 41.006-.699-1.253-.34.167.588 1.12z"/>
  <path fill="#d80000" d="m52.292 42.195-.944-.092.22 2.059z"/>
  <path fill="#e9001a" d="m52.042 42.352-.462-.082.107 1.007z"/>
  <path fill="#d80000" d="M12.615 16.737c1.833.141 3.806.609 5.257-.13l.212 1.5-3.236 2.185c-.689.474-.498.901-.65 1.347-.94-1.558-1.493-3.187-1.583-4.902z"/>
  <path fill="#e9001a" d="M13.072 17.256c1.526.111 3.36.217 4.568-.361l.177 1.173-2.897 1.887c-.574.37-.699.799-.825 1.147-.783-1.218-.949-2.504-1.023-3.846z"/>
  <path fill="#d80000" d="M13.377 15.286c.736-1.854 1.573-3.69 3.057-5.412 1.475.523 2.884 1.141 5.178.5l1.403-.968.551.1c-.76 1.4-1.444 2.836-2.455 4.11-1.017.66-2.021 1.387-3.124 1.62-1.613.345-3.13.28-4.61.05z"/>
  <path fill="#e9001a" d="M13.905 14.91c.628-1.315 1.56-3.069 2.827-4.29 1.26.371 2.462.81 4.42.355l1.633-1.222.47.071c-.648.993-1.667 2.547-2.53 3.45-.869.468-1.676 1.318-2.617 1.484-1.377.245-2.94.316-4.203.152z"/>
  <path fill="#d80000" d="M16.951 8.62c1.536-3.505 5.02-4.028 7.86-5.537-4.266 2.679-4.232 4.442-4.435 6.256z"/>
  <path fill="#e9001a" d="M17.803 8.56c.949-2.737 3.1-3.146 4.853-4.324-2.634 2.092-2.613 3.469-2.738 4.886z"/>
  <path fill="#d80000" d="m22.99 8.454.969-1.67c2.153.054 2.646-.681 3.55-1.27-1.087 1.23-2.499 2.015-3.533 3.09z"/>
  <path fill="#e9001a" d="m23.215 8.346.781-1.354c1.352-.002 1.805-.248 2.486-.68-.835.977-1.801 1.363-2.59 2.212z"/>
  <path fill="#d80000" d="M52.16 15.693c-2.125.136-4.414.589-6.096-.126l-.247 1.45 3.754 2.114c.799.458.578.872.753 1.303 1.09-1.507 1.732-3.082 1.836-4.741z"/>
  <path fill="#e9001a" d="M51.631 16.195c-1.77.107-3.897.21-5.298-.35l-.206 1.136 3.36 1.824c.666.358.81.773.957 1.11.908-1.179 1.1-2.422 1.187-3.72z"/>
  <path fill="#d80000" d="M51.462 13.302c-.962-1.747-2.022-3.464-3.71-4.988-1.397.704-2.718 1.493-5.074 1.145l-1.514-.786-.534.168c.929 1.294 1.788 2.633 2.95 3.77 1.092.528 2.179 1.124 3.302 1.218 1.643.14 3.141-.113 4.58-.527z"/>
  <path fill="#e9001a" d="M50.891 12.995c-.787-1.226-1.931-2.85-3.34-3.903-1.204.526-2.342 1.111-4.342.905L41.436 8.99l-.458.13c.768.903 1.973 2.317 2.942 3.106.92.356 1.827 1.098 2.782 1.145 1.397.07 2.957-.054 4.19-.375z"/>
  <path fill="#d80000" d="M47.553 6.624c-1.536-3.506-5.02-4.029-7.86-5.537 4.266 2.678 4.232 4.442 4.435 6.256z"/>
  <path fill="#e9001a" d="M46.7 6.564c-.948-2.738-3.098-3.146-4.852-4.325 2.634 2.092 2.613 3.47 2.738 4.886z"/>
  <path fill="#d80000" d="m40.028 6.791-1.53-1.184c-2.1.483-2.529-.145-3.531-.542 1.31.988 2.897 1.223 4.125 2.07z"/>
  <path fill="#e9001a" d="m39.762 6.748-1.26-.929c-1.285.097-1.785-.017-2.56-.212.974.454 2.228.586 3.192 1.45z"/>
</svg>
